<?xml version="1.0" encoding="UTF-8"?>
<svg version="1.1" xmlns="http://www.w3.org/2000/svg" width="2160" height="1440">
<path d="M0 0 C1.02747849 0.00456207 1.02747849 0.00456207 2.07571411 0.00921631 C24.04936358 0.1516988 63.47869971 1.00804796 80.7722168 16.21582031 C84.88343992 20.62057308 87.94200385 25.74092121 90.9765625 30.921875 C93.63077226 34.68687739 96.16855703 37.14097944 100.75 38 C110.17993393 37.40935619 119.92139476 31.55932832 128.4609375 27.76953125 C137.62489945 24.05823549 148.84064956 22.14422557 158.4921875 25.34765625 C162.71659843 27.8265087 165.68547004 30.96435175 167.75 35.4375 C168.63447692 41.62883841 167.27573481 46.18916629 165.1875 52 C163.18034972 57.6148867 161.81801733 61.64155199 163.75 67.4375 C166.48832068 70.91590736 168.41828716 72.72404141 172.75 73.4375 C188.41464471 74.16490791 207.0878305 74.48564831 219.5 63.625 C221.27311287 61.91954167 223.02009022 60.18676542 224.75 58.4375 C225.94120374 57.23547636 227.13262457 56.03366784 228.32421875 54.83203125 C228.95545654 54.19531494 229.58669434 53.55859863 230.23706055 52.90258789 C231.20252808 51.92986938 231.20252808 51.92986938 232.1875 50.9375 C232.83050049 50.28966553 233.47350098 49.64183105 234.13598633 48.97436523 C251.53055929 31.57097485 251.53055929 31.57097485 265.3125 30.9375 C279.33853485 31.29561153 299.26893246 38.56751944 309.75 48.4375 C311.453125 50.953125 311.453125 50.953125 313 53.6875 C317.33788912 60.7626161 322.70626922 66.76486393 330.75 69.4375 C336.76778875 70.1187591 340.81293173 68.70676786 345.75 65.4375 C347.10402442 64.2523987 348.43718925 63.04309951 349.75 61.8125 C356.18743792 55.99763828 363.21713171 56.01582428 371.56640625 56.19921875 C378.0046199 56.68109732 382.89855952 58.19417191 387.8125 62.5 C391.46542473 66.9362833 390.94021405 70.94502315 390.625 76.375 C390.21747122 82.70440593 390.21747122 82.70440593 392.55078125 88.46484375 C394.83695205 90.71359768 397.11594109 92.61323623 399.75 94.4375 C405.09305027 98.41372346 409.93910532 102.51395115 411.07666016 109.42089844 C412.19894307 122.20071755 409.53605665 134.31677037 406.16650391 146.55712891 C404.07319253 154.4001667 404.43739438 161.45687129 408.4609375 168.62109375 C412.43104716 174.21533918 417.97965947 178.12590267 424.75 179.4375 C427.93105632 179.61072584 430.71055527 179.42067344 433.75 178.4375 C439.20348938 173.4035098 440.11779214 167.20767782 440.6640625 160.125 C440.77043534 156.7984312 440.2600772 153.7246642 439.75 150.4375 C438.96281741 136.53060762 438.96281741 136.53060762 442.75 131.4375 C447.69350739 126.1943861 454.56650853 124.65716419 461.54296875 124.17578125 C466.16011941 124.25285136 469.99882358 125.68304727 474.25 127.375 C483.35120585 131.03933863 483.35120585 131.03933863 492.9921875 130.94921875 C495.59257962 129.63658062 497.67761898 128.50988102 499.75 126.4375 C499.44096017 125.09832739 499.09976758 123.76661682 498.75 122.4375 C498.27073666 117.48511214 498.11864676 115.46344902 500.75 111.1875 C505.42737575 106.40560188 510.4504563 104.22031965 517.125 103.9375 C527.99615308 104.40297755 536.63528291 109.88169722 543.87890625 117.75 C544.55824219 118.53375 545.23757813 119.3175 545.9375 120.125 C551.21924346 126.21612654 555.23955061 128.78338654 563.28515625 129.45703125 C565.90947385 129.43623634 568.18248576 128.96857809 570.75 128.4375 C583.69922212 127.07929792 592.78254356 129.76417614 603.00390625 137.9453125 C607.11670174 141.67783529 609.40560516 145.34279707 610.02734375 150.9296875 C610.09448621 155.83854724 609.59006978 160.60709878 608.75 165.4375 C609.69875 165.2725 610.6475 165.1075 611.625 164.9375 C612.99832188 164.75752838 614.37361835 164.59234294 615.75 164.4375 C616.925625 164.30021484 616.925625 164.30021484 618.125 164.16015625 C623.92959391 163.78829945 627.78147199 164.71764603 632.4609375 168.21484375 C639.65406595 175.19929783 644.94016283 184.3419632 649.7890625 193.03515625 C655.40742547 199.91821048 664.11048006 202.21148326 672.25 204.9375 C691.1259613 211.25927165 691.1259613 211.25927165 695.25 218.125 C698.56854466 226.01576174 696.7203253 233.65027445 694.40625 241.578125 C693.46463488 245.6808766 692.99985798 248.93721595 694.921875 252.78125 C695.70304687 253.84859375 695.70304687 253.84859375 696.5 254.9375 C697.04527344 255.70320312 697.59054687 256.46890625 698.15234375 257.2578125 C698.67957031 257.97710938 699.20679688 258.69640625 699.75 259.4375 C703.69841739 265.12026895 704.96811731 269.309726 705.0625 276.25 C705.10600586 277.29897461 705.10600586 277.29897461 705.15039062 278.36914062 C705.21324583 283.53777256 704.06275528 286.29505283 700.75 290.4375 C700.30140625 291.02015625 699.8528125 291.6028125 699.390625 292.203125 C694.81719961 297.0848712 689.38035908 300.32952915 683.61230469 303.62207031 C678.18751428 306.81512657 673.61051328 310.71647343 670.75 316.4375 C670.37623704 322.04394443 670.49481423 325.65644589 673.75 330.4375 C680.08154272 337.5466006 688.23569715 341.22248412 697.4375 343.25 C698.530625 343.311875 699.62375 343.37375 700.75 343.4375 C701.39839844 343.47617187 702.04679687 343.51484375 702.71484375 343.5546875 C719.38976762 344.09745175 732.31852462 338.6115718 745.40234375 328.8828125 C758.22549342 319.38010645 758.22549342 319.38010645 766.1875 319.125 C766.94933594 319.08761719 767.71117187 319.05023437 768.49609375 319.01171875 C771.71904647 319.62056077 772.73619235 320.87145231 774.75 323.4375 C776.33370564 326.91584825 777.65259466 330.44871715 778.9921875 334.02734375 C783.60132933 342.9690789 793.2091152 345.52949261 801.984375 349.24414062 C808.07017647 351.91235582 812.52454032 354.24846421 816.75 359.4375 C818.41069621 364.41958863 818.83338581 368.99988194 816.65625 373.8984375 C814.61388605 377.34221076 812.40153412 380.58593348 809.96875 383.765625 C804.14534998 391.4790759 799.76810268 401.06281465 799.1875 410.875 C800.05295756 416.35623121 801.47151961 420.41876637 805.703125 424.16796875 C815.39533058 431.03045697 825.71145975 432.70999289 837.4375 432.3125 C844.81762834 432.59099541 850.6211398 435.18652408 855.75 440.4375 C858.267722 444.21408301 858.97383991 447.58987033 859.625 452 C860.45479434 457.16863423 861.58057532 459.31043149 865.75 462.4375 C869.19427096 464.15963548 872.976219 463.82062497 876.75 463.4375 C878.77323613 462.48538888 880.77699884 461.48976728 882.75 460.4375 C885.625 459.8125 885.625 459.8125 888.75 460.4375 C894.30641276 464.0253551 898.0341058 468.03149499 899.75 474.4375 C899.75 478.75385972 899.30996619 480.72930747 896.625 484.125 C886.14458728 492.55489719 873.08681327 494.71487238 860.17599487 497.33035278 C850.194543 499.37262434 840.28087608 501.51016172 830.6875 505 C829.60251221 505.38442261 829.60251221 505.38442261 828.49560547 505.77661133 C821.27336998 508.58545141 815.90889406 512.9104141 812.6875 520.0625 C812.20410156 521.09503906 811.72070312 522.12757813 811.22265625 523.19140625 C810.73667969 524.26261719 810.25070312 525.33382812 809.75 526.4375 C808.72119822 528.63107986 807.67988626 530.81884419 806.625 533 C806.16867187 533.97066406 805.71234375 534.94132813 805.2421875 535.94140625 C802.9782788 539.72841583 800.81256003 541.11873199 796.625 542.375 C788.6522436 542.50359285 782.01868619 538.08391531 775.1875 534.375 C761.81735247 527.18619992 749.46830036 525.05069112 734.5625 529.0625 C728.43896289 531.03760619 722.56857823 533.52063684 716.7109375 536.16796875 C702.70496975 542.17316601 688.55139138 537.22464574 675.19140625 532.0625 C641.27922524 519.12890997 594.40341405 526.03082921 559.75 532.4375 C559.04182129 532.56817871 558.33364258 532.69885742 557.60400391 532.83349609 C548.374479 534.67350518 540.16899296 538.96882338 531.78491211 543.07836914 C488.72672958 564.15597314 488.72672958 564.15597314 472.82128906 558.78637695 C467.08675301 556.22925338 463.23911687 552.28232289 459 547.75 C447.0445605 534.79687753 447.0445605 534.79687753 431.31567383 528.12133789 C421.46381148 528.0339939 412.0607432 529.98637764 402.4375 531.875 C399.88006801 532.36637692 397.32206516 532.85466834 394.76387024 533.34205627 C393.18498968 533.64398749 391.60664919 533.94876265 390.02897644 534.25694275 C380.99073837 536.01153074 371.9723795 537.44479873 362.75 536.4375 C359.6875 534.1875 359.6875 534.1875 358.44140625 532.80078125 C355.15865826 530.15487121 350.79610895 529.54473268 346.7734375 528.52734375 C342.8418452 527.11014187 340.6186204 525.1747408 338.75 521.4375 C338.44112247 516.30468215 338.66381168 511.46112098 339.75 506.4375 C340.02797385 500.82200532 340.02797385 500.82200532 338.75 495.4375 C331.06300746 490.97356513 321.87303284 492.19048824 313.63671875 494.1953125 C307.6077004 496.01857345 302.66289847 498.43639218 297.58984375 502.16796875 C293.12072945 505.2517525 287.9570762 504.98976566 282.75 504.4375 C279.66944983 503.50434064 278.34956122 502.54964349 275.75 500.4375 C274.60753678 498.04498733 274.20874752 496.08804125 273.75 493.4375 C263.05893716 499.09853496 258.17891549 514.61602339 254.65332031 525.59863281 C247.81809123 548.10686849 246.51562258 574.12299825 257.7890625 595.3984375 C263.88986898 605.16964789 273.1793957 610.59010717 284.10180664 613.24584961 C291.37770826 614.80120236 298.68892398 614.98517729 306.1015625 615.23828125 C325.3156616 615.94029012 338.43405382 623.53129557 351.734375 637.23828125 C353.66029394 639.33962303 355.48842837 641.49779239 357.3125 643.6875 C362.27775273 649.44398238 368.22024702 653.10157608 375.75 654.4375 C382.45581686 654.74194569 388.92861183 654.5591206 395.58227539 653.67553711 C410.63563227 652.02253306 425.16073132 653.73653438 439.75 657.4375 C440.43239746 657.6034668 441.11479492 657.76943359 441.81787109 657.94042969 C451.83547236 660.42192202 461.30557144 664.17109911 470.875 668 C500.2607254 679.74963377 529.46527064 681.64089436 560.8125 679.9375 C611.32232295 677.35700723 662.05412142 681.45311031 712.39526367 685.18890381 C720.64020719 685.79987926 728.88582966 686.40096519 737.13238525 686.98977661 C739.76944734 687.17989039 742.40595347 687.3766013 745.04248047 687.57397461 C759.27560275 688.61441166 773.25235554 688.65816136 787.5 687.5625 C788.70358154 687.47589111 789.90716309 687.38928223 791.1472168 687.30004883 C796.62585431 686.89199134 802.08273549 686.43077835 807.53515625 685.75390625 C808.39463867 685.64868652 809.25412109 685.5434668 810.13964844 685.43505859 C811.69608611 685.23587723 813.25054247 685.02012829 814.80175781 684.78369141 C820.15372155 684.08816089 823.11670591 684.94623132 827.75 687.4375 C831.2405132 691.1532076 831.25158141 695.17441443 831.11328125 700.05859375 C830.5999559 703.42004685 829.23109559 705.17532461 826.75 707.4375 C824.13186302 708.74656849 822.1614198 708.59689221 819.22755867 708.63956398 C818.04351298 708.65885028 816.85946729 708.67813658 815.63954142 708.69800731 C814.32435565 708.7140719 813.00916987 708.73013649 811.65412998 708.74668789 C810.24829502 708.76687227 808.84246417 708.78734506 807.43663725 708.80808178 C803.53786473 708.86368053 799.63903199 708.91172612 795.74013413 708.95760625 C793.22367981 708.98743467 790.70724835 709.01880395 788.19081635 709.05045515 C743.46921105 709.60596806 698.74545096 709.61196522 654.02104965 709.63605712 C641.14907559 709.64319081 628.27710829 709.65598045 615.40513889 709.66882664 C591.59749727 709.69251722 567.78985382 709.71173953 543.98220634 709.72842598 C520.28449743 709.74504634 496.58679125 709.76358872 472.88908577 709.78455925 C471.77140418 709.78554684 471.77140418 709.78554684 470.63114317 709.78655439 C463.81804031 709.79257452 457.00493747 709.79861434 450.19183465 709.80467889 C433.24654012 709.81976039 416.30124534 709.83453708 399.35595036 709.84909725 C398.19863173 709.85009196 398.19863173 709.85009196 397.01793293 709.85110676 C359.5940698 709.88324357 322.17020405 709.91182905 284.74633789 709.94018555 C233.41104887 709.97908541 182.07576285 710.02051995 130.74047852 710.06518555 C129.1578471 710.06656192 127.57521569 710.06793821 125.99258428 710.06931442 C118.09456328 710.07618284 110.19654228 710.08305611 102.29852128 710.08993029 C101.12769717 710.09094926 101.12769717 710.09094926 99.93322004 710.09198881 C95.99555466 710.09541585 92.05788928 710.09884392 88.1202239 710.10227392 C36.81691716 710.14695452 -14.48639131 710.18957213 -65.78970017 710.23173871 C-68.80350241 710.23421623 -71.81730466 710.23669423 -74.8311069 710.2391727 C-75.5738612 710.23978348 -76.31661549 710.24039427 -77.0818775 710.24102356 C-88.09423544 710.25008287 -99.10659329 710.25925643 -110.11895108 710.26850247 C-127.09659895 710.2827522 -144.07424694 710.29684239 -161.05189514 710.3106842 C-161.74477006 710.31124948 -162.43764498 710.31181475 -163.15151611 710.31239715 C-195.40328827 710.33869045 -227.65506022 710.36278867 -259.90683842 710.38034916 C-260.57498178 710.38071446 -261.24312515 710.38107976 -261.93151529 710.38145613 C-274.82486256 710.38850505 -287.7182099 710.39540567 -300.61155751 710.40181401 C-308.89089629 710.40593666 -317.17023496 710.41023766 -325.44957352 710.41478348 C-326.48935114 710.41535407 -326.48935114 710.41535407 -327.55013437 710.41593619 C-353.12749938 710.43010226 -378.7048476 710.4550852 -404.28220118 710.48272598 C-422.70350317 710.50260964 -441.12480391 710.52125481 -459.54611224 710.53421229 C-460.36382992 710.53478759 -461.18154761 710.53536288 -462.02404462 710.53595561 C-470.2243163 710.54167588 -478.42458815 710.54703759 -486.62486036 710.55195114 C-490.67923201 710.55438795 -494.73360362 710.55690718 -498.78797519 710.55947864 C-499.9853426 710.56023552 -499.9853426 710.56023552 -501.20689925 710.56100769 C-513.95580293 710.56926597 -526.70468936 710.58438269 -539.45358283 710.60223027 C-552.15344321 710.61986998 -564.85329303 710.63029783 -577.55316545 710.63331662 C-584.44893082 710.63516296 -591.34465663 710.64030705 -598.24040858 710.65454213 C-604.57119091 710.66729955 -610.90190873 710.67087408 -617.23270215 710.66706714 C-619.52897306 710.66732842 -621.82524656 710.67100636 -624.12150563 710.67838365 C-627.23604418 710.68789967 -630.35033751 710.6851333 -633.46487945 710.67924446 C-634.3630785 710.68494487 -635.26127755 710.69064529 -636.18669475 710.69651845 C-642.34807474 710.66629171 -647.92220536 710.47432031 -652.75 706.25 C-654.7875973 702.42950506 -654.49815749 700.54907762 -653.25 696.4375 C-651.06008403 693.85452219 -649.28168312 691.95334156 -646.25 690.4375 C-639.28049195 690.47954831 -632.43914535 691.35489439 -625.59545898 692.5847168 C-595.2793069 697.95244603 -564.1501742 691.82663303 -534.1265564 686.91390991 C-520.86218842 684.74995931 -507.67738166 683.17752587 -494.25 682.4375 C-492.85204217 682.35284392 -491.45409372 682.26803277 -490.05615234 682.18310547 C-478.45225114 681.50022633 -466.8734141 681.19793407 -455.25 681.1875 C-454.350466 681.18616058 -453.45093201 681.18482117 -452.5241394 681.18344116 C-432.20602343 681.18991339 -412.00064202 682.48789207 -391.87109375 685.3046875 C-355.2682464 690.32005886 -317.75726304 688.25624649 -281.25 683.4375 C-279.64258197 683.22685871 -278.03516005 683.01624703 -276.42773438 682.80566406 C-275.62547424 682.70016739 -274.82321411 682.59467072 -273.99664307 682.48597717 C-272.35037299 682.2696471 -270.70400894 682.05403113 -269.05755615 681.83909607 C-265.22123729 681.33730715 -261.38743499 680.8259185 -257.55761719 680.27661133 C-226.89416196 675.99793338 -196.09492304 674.96698286 -165.17749023 675.17321777 C-161.75169091 675.19238652 -158.32594443 675.19634453 -154.9000988 675.20005322 C-136.77214275 675.22173691 -118.67861312 675.46866653 -100.56445312 676.20922852 C-66.72606778 677.54632775 -34.39661294 676.24697724 -3.5 661.25 C11.87915343 653.82217071 25.26872004 655.06928329 41.78515625 658.10351562 C47.40607248 659.08151387 52.17779046 659.88016795 57.75 658.4375 C60.89881748 655.28868252 61.67566326 652.2849388 62.0625 647.875 C61.91746844 640.68934559 59.18857397 634.55021398 54.25 629.375 C50.91014309 626.2665564 47.31485602 623.6156213 43.625 620.9375 C38.60469086 617.2369954 34.89618757 613.82251071 31.75 608.4375 C31.26660156 607.65117188 30.78320312 606.86484375 30.28515625 606.0546875 C25.37374495 596.9393258 25.13253741 586.85338886 27.8828125 577.01953125 C28.54768183 574.82538964 29.24394083 572.64370549 29.95043945 570.46264648 C32.25611855 563.23169438 33.34484389 556.43891988 30.25 549.25 C24.88110583 540.14139333 16.24586363 534.86411777 7.45458984 529.48388672 C5.03406533 527.99801332 2.64262485 526.46779034 0.25 524.9375 C-0.62785156 524.38320313 -1.50570312 523.82890625 -2.41015625 523.2578125 C-4.49796097 521.91954977 -6.56322911 520.56243322 -8.62109375 519.1796875 C-25.16585866 508.13310006 -42.22685256 502.32231075 -62.25 505.4375 C-81.14955897 509.39272444 -97.82292605 518.72457916 -114.55810547 527.95605469 C-135.79572717 539.64387334 -155.18353411 543.15639603 -178.9375 537.3125 C-194.63952536 533.70684973 -205.7610786 540.86733302 -218.70703125 548.9765625 C-235.32368028 559.28274283 -254.30343595 567.85255484 -274.25 565.4375 C-278.55716417 564.25365956 -281.34631105 562.47811152 -284.3125 559.0625 C-285.53774724 555.63180772 -285.2968731 553.927077 -284.25 550.4375 C-283.5420726 549.23721708 -282.81178963 548.04990652 -282.0625 546.875 C-279.95227871 543.68774131 -279.95227871 543.68774131 -280.625 540.8125 C-284.03445303 535.82945327 -288.30901951 532.57999625 -294.25 531.4375 C-305.04432436 531.09767868 -315.0939938 536.09443242 -324.83764648 540.19067383 C-336.92612741 545.26722562 -347.7930208 548.85526397 -360.7734375 544.53515625 C-372.22359289 539.46024511 -380.50935045 528.70925902 -385.25 517.4375 C-387.53166197 510.5925141 -387.39343778 502.04887229 -384.4375 495.4375 C-383.73701423 494.08887793 -383.01013136 492.75342634 -382.25 491.4375 C-379.93876823 487.22775642 -378.38603818 484.29728526 -379.25 479.4375 C-386.9443893 473.52982282 -400.8907879 473.61817503 -410.25 474.4375 C-413.75829714 475.29465849 -413.75829714 475.29465849 -416.25 476.4375 C-416.1675 477.654375 -416.085 478.87125 -416 480.125 C-416.03646389 483.0785751 -416.25845194 484.45520882 -417.5625 487.1875 C-426.34471349 494.54005083 -440.18294577 495.7066568 -451.25 496.4375 C-452.41789063 496.51871094 -452.41789063 496.51871094 -453.609375 496.6015625 C-462.76590326 496.93071874 -474.30700239 495.85977279 -481.25 489.4375 C-482.22682553 488.13870405 -483.18371106 486.82477702 -484.125 485.5 C-487.25846243 481.21252583 -490.12151748 478.15228673 -495.25 476.4375 C-506.07607209 475.16671953 -517.90291397 476.42865898 -527.25 482.4375 C-529.69743735 485.07320176 -531.766771 487.75193373 -533.8359375 490.6875 C-539.83589387 498.94083365 -544.9384297 501.14998163 -554.875 502.9375 C-556.12539063 503.1334375 -557.37578125 503.329375 -558.6640625 503.53125 C-565.51915074 505.2636906 -570.05099653 509.93667221 -575.1015625 514.6328125 C-579.63811389 518.44351566 -583.34270722 518.98796036 -589.17578125 518.88671875 C-596.33822229 517.84011047 -602.4653706 513.63662389 -608.4375 509.75 C-618.32337289 503.53720793 -628.09016894 504.15478207 -639.3125 504.4375 C-642.51169422 504.51791865 -645.71032117 504.57757043 -648.91015625 504.625 C-649.98705467 504.66234253 -649.98705467 504.66234253 -651.08570862 504.70043945 C-658.50478234 504.80682238 -664.78320965 502.62394213 -670.25 497.4375 C-672.06741407 495.36508129 -673.85367994 493.2759989 -675.6015625 491.14453125 C-677.7195667 488.95124254 -679.47226238 488.48372916 -682.484375 488.3046875 C-686.30899832 488.31656521 -689.95693316 488.39563331 -693.75 488.9375 C-704.98869347 490.54302764 -704.98869347 490.54302764 -710.0625 488.0625 C-715.06405276 482.06063668 -718.25 475.29401211 -718.25 467.4375 C-717.05083508 463.37366332 -716.18622127 461.15767021 -712.8125 458.5625 C-709.27090302 457.00765255 -706.00328926 456.33769989 -702.16015625 456.04296875 C-687.23564371 454.77710548 -671.80872593 452.75596791 -661.09375 441.08984375 C-659.13652909 438.27426536 -657.99637589 435.6491218 -656.8125 432.4375 C-653.90006107 425.19192023 -650.00159919 421.35342753 -643.25 417.4375 C-637.53698203 415.38589619 -632.5084413 415.21180812 -626.4765625 415.34765625 C-624.58073174 415.368079 -622.6848983 415.3882536 -620.7890625 415.40820312 C-617.8312605 415.45161365 -614.87364468 415.50002471 -611.91601562 415.55395508 C-609.04037134 415.60256898 -606.16497149 415.63221398 -603.2890625 415.66015625 C-602.41690094 415.68191422 -601.54473938 415.70367218 -600.64614868 415.72608948 C-594.81530152 415.77260418 -589.5340054 415.04838291 -584.25 412.4375 C-580.69666953 408.41768692 -579.3299849 404.15578842 -577.8125 399.0625 C-573.21943514 384.56514277 -565.16719961 377.89779343 -552.30078125 370.33203125 C-545.96350672 366.52693336 -545.96350672 366.52693336 -542.25 360.4375 C-541.80104384 356.92067675 -541.97177964 354.99394072 -543.5625 351.8125 C-552.08709286 344.27913886 -565.00733331 344.19928932 -575.77539062 343.015625 C-590.45175863 341.23574137 -590.45175863 341.23574137 -595.25 336.4375 C-595.927353 328.71567578 -594.11151218 324.02011325 -589.296875 317.9921875 C-587.0219477 315.39113426 -584.6715725 312.90231487 -582.25 310.4375 C-581.5590625 309.72207031 -580.868125 309.00664063 -580.15625 308.26953125 C-564.65772978 293.32039888 -540.77638469 287.91538173 -519.875 288.14794922 C-509.55246535 288.47432348 -509.55246535 288.47432348 -505.25 291.4375 C-502.82480563 294.13122801 -500.63971825 296.93815211 -498.453125 299.828125 C-495.3520015 303.50108687 -492.74988766 304.83584507 -488.25 306.4375 C-486.93 306.4375 -485.61 306.4375 -484.25 306.4375 C-484.37375 305.695 -484.4975 304.9525 -484.625 304.1875 C-484.25 301.4375 -484.25 301.4375 -481.5 299.1875 C-474.69330905 295.52235872 -468.94313542 295.7922189 -461.625 297.875 C-454.44088765 300.18895247 -447.56583789 303.19961083 -440.67333984 306.26342773 C-430.1350109 310.92176054 -418.95985243 314.0499361 -407.5625 310.1875 C-403.52377576 308.11829022 -403.52377576 308.11829022 -401.25 304.4375 C-399.88601048 297.89035028 -403.08141842 293.75809222 -406.5234375 288.3046875 C-410.28291294 282.0615767 -411.24191657 276.6643207 -410.25 269.4375 C-408.22493432 264.39993993 -404.96842591 260.1480851 -400.25 257.4375 C-397.11755137 256.51643564 -393.98670254 255.74709726 -390.796875 255.05078125 C-388.32957907 254.69105209 -388.32957907 254.69105209 -387.25 253.4375 C-387.08902603 251.12722542 -386.9720842 248.81384008 -386.875 246.5 C-386.11233405 233.66052624 -382.64728289 224.32696766 -373.01660156 215.35742188 C-362.79477627 207.32793473 -351.0899597 202.11750405 -339.4375 196.5 C-307.98514066 182.93351831 -307.98514066 182.93351831 -287.25 157.4375 C-285.13786587 150.96583778 -284.08486712 144.43905303 -283.22998047 137.70727539 C-280.91632415 119.65470943 -274.76428268 106.4022831 -260.7109375 94.31640625 C-252.83442398 88.30275069 -245.01179039 86.5207181 -235.25 87.4375 C-228.5541587 89.09254552 -224.11970119 91.59295131 -220.25 97.4375 C-219.15403395 99.9094824 -218.19902158 102.2743235 -217.3125 104.8125 C-214.10035411 113.31255552 -210.51293727 119.97275513 -202.38671875 124.5234375 C-197.91089403 126.43814131 -193.84226114 127.06691592 -189.078125 125.91015625 C-183.90934885 123.80183966 -181.66193899 120.63026244 -179.16015625 115.75390625 C-177.47611882 111.46792259 -177.12190308 107.33809083 -177.0390625 102.76171875 C-177.01070312 101.68599609 -176.98234375 100.61027344 -176.953125 99.50195312 C-176.90131652 97.26253148 -176.85696486 95.02292409 -176.8203125 92.78320312 C-176.5385645 82.951372 -174.45461222 76.41460774 -168.625 68.5625 C-167.97011597 67.66567505 -167.97011597 67.66567505 -167.30200195 66.75073242 C-156.26115819 51.85625361 -156.26115819 51.85625361 -149.25 48.4375 C-146.09153437 48.09662007 -143.28782039 48.52386981 -140.25 49.4375 C-136.52315448 52.66071775 -134.94323056 57.06813244 -133.08203125 61.546875 C-132.39849297 63.40980094 -132.39849297 63.40980094 -131.25 64.4375 C-125.25498642 64.12358486 -121.2562761 62.08177729 -116.1875 59 C-108.71325179 54.5239365 -102.24313742 51.33084801 -93.25 52.4375 C-89.42189662 53.41185219 -85.67014791 54.48594452 -81.8984375 55.66015625 C-77.84216548 56.52439408 -75.23985731 56.57001294 -71.25 55.4375 C-66.77392229 51.40074103 -64.57038386 45.23908361 -62 39.875 C-54.60888225 24.8170592 -46.85829009 9.58961917 -30.25 3.4375 C-20.15205078 0.80371043 -10.44038818 -0.08180392 0 0 Z " fill="#D3252D" transform="translate(913.25,361.5625)"/>
</svg>
